<svg width="141" height="140" viewBox="0 0 141 140" fill="none" xmlns="http://www.w3.org/2000/svg">
<g id="Frame 29">
<rect id="Rectangle 84" x="37.415" y="34.9778" width="67.1706" height="67.1706" rx="33.5853" fill="#3D5CFF"/>
<path id="Vector 7" d="M56.2559 68.8503L65.9505 78.5449L85.7437 58.7517" stroke="white" stroke-width="5" stroke-linecap="round" stroke-linejoin="round"/>
<path id="Vector 11" d="M105.097 107.24C106.927 107.441 110.828 109.53 112.368 111.839C113.907 114.148 114.782 118.144 114.91 119.94" stroke="#3862F8" stroke-width="2" stroke-linecap="round" stroke-linejoin="round"/>
<path id="Vector 10" d="M31.9789 84.343C29.8623 86.7802 24.3208 91.1544 19.0871 89.1533C12.5449 86.652 12.7373 82.8037 14.8539 81.2643C16.9705 79.725 19.8567 82.2265 20.4339 84.343C21.0112 86.4595 20.0491 93.5789 14.8539 96.2728C9.65869 98.9666 2.73174 97.6197 1 96.2728" stroke="#3862F8" stroke-width="2" stroke-linecap="round" stroke-linejoin="round"/>
<path id="Vector 9" d="M115.391 16.2281C112.89 15.9073 107.656 17.3824 106.732 25.8488C105.809 34.3151 98.3945 36.0469 94.8027 35.8544" stroke="#3862F8" stroke-width="2" stroke-linecap="round" stroke-linejoin="round"/>
<circle id="Ellipse 77" cx="21.1072" cy="51.1084" r="4.61793" fill="#3862F8"/>
<circle id="Ellipse 78" cx="49.0318" cy="14.8809" r="3.84817" fill="#3862F8"/>
<circle id="Ellipse 79" cx="60.7698" cy="22.18" r="2.29619" fill="#3862F8"/>
<circle id="Ellipse 80" cx="122.125" cy="65.759" r="4.13688" fill="#3862F8"/>
<circle id="Ellipse 81" cx="36.1154" cy="112.708" r="4.13688" fill="#3862F8"/>
<circle id="Ellipse 82" cx="87.6833" cy="124.83" r="4.13688" fill="#3862F8"/>
<circle id="Ellipse 83" cx="74.887" cy="120.693" r="2.29623" fill="#3862F8"/>
</g>
</svg>
